<mxfile host="app.diagrams.net" modified="2023-05-01T17:31:18.995Z" agent="Mozilla/5.0 (Windows NT 10.0; Win64; x64; rv:109.0) Gecko/20100101 Firefox/112.0" version="21.2.3" etag="O4X7FGX4ycziEU_4SGFF" type="github">
  <diagram name="Page-1" id="l96JLhfkSOHOnqSVqiax">
    <mxGraphModel>
      <root>
        <mxCell id="0" />
        <mxCell id="1" parent="0" />
      </root>
    </mxGraphModel>
  </diagram>
</mxfile>
